<svg width="264" height="258" viewBox="0 0 264 258" fill="none" xmlns="http://www.w3.org/2000/svg">
<path opacity="0.8" d="M-431.57 439.346L-392.505 412.634L-196.485 389.815L-272.619 283.327L-264.806 349.52L-288.852 400.591L-322.014 383.748L-272.619 283.327L-265.674 269.201L-243.884 195.403L73.7584 149.131L189.217 181.91L431.421 78.3203L355.895 436.449" stroke="#009FD6"/>
<path opacity="0.8" d="M-90.604 293.627L-58.1854 265.25L-242.963 195.49L13.0835 203.13" stroke="#009FD6"/>
<path opacity="0.8" d="M-36.0453 165.07L-59.2891 265.078L73.1744 149.098L78.8773 255.459L-59.2891 263.173" stroke="#009FD6"/>
<path opacity="0.8" d="M50.9143 439.941L-19.502 231.771L-100.959 439.851" stroke="#009FD6"/>
<path opacity="0.8" d="M-19.9827 232.117L-8.42398 437.885L79.8739 255.282L114.811 437.071L176.776 331.02L238.393 319.257L314.089 438.157L-35.7129 165.157" stroke="#009FD6"/>
<path opacity="0.8" d="M189.63 182.577L99.176 188.481L79.1626 256.157L141.825 243.712L189.63 182.577L99.176 188.481L73.3945 149.693" stroke="#009FD6"/>
<path opacity="0.8" d="M79.4258 255.562L189.63 181.216" stroke="#009FD6"/>
<path opacity="0.8" d="M285.966 158.658L431.42 78.3203L244.457 209.708L313.898 438.752" stroke="#009FD6"/>
<path opacity="0.8" d="M189.04 180.865L285.578 157.425L243.757 208.576L189.04 180.865L188.43 221.023L141.381 242.011L189.389 268.268L243.757 208.576L176.058 330.503L189.389 268.268L188.43 221.023L243.757 208.576L237.832 318.692" stroke="#009FD6"/>
<path opacity="0.8" d="M438 445.889L375.968 343.635L293.863 372.488L346.552 203.002L263.409 271.958L283.827 181.862L285.99 158.453L251.037 155.641" stroke="#009FD6"/>
<path opacity="0.8" d="M263.1 271.026L306.347 252.507L345.89 202.033" stroke="#009FD6"/>
</svg>
